<svg xmlns="http://www.w3.org/2000/svg" viewBox="0 0 1009.91 1010" id="Time"><g fill="#000000" class="color000000 svgShape"><path fill="#510db6" d="M978.303 599.71l-112.599 20.466c-6.478 20.242-14.795 39.677-24.39 58.329l65.278 94.238c13.943 21.654 12.307 32.324 0 44.653l-89.24 89.31c-12.33 12.327-24.479 13.269-44.631 0l-94.284-65.347c-18.628 9.685-38.086 17.957-58.372 24.39l-20.49 112.644c-5.447 25.15-14.122 31.517-31.562 31.517l-126.206.09c-17.44-.09-26.63-7.98-31.562-31.563L389.779 865.75c-20.265-6.434-39.722-14.705-58.328-24.39l-94.306 65.346c-21.61 13.92-32.303 12.328-44.632 0l-89.263-89.263c-12.33-12.33-13.248-24.39 0-44.631l65.3-94.374c-9.639-18.583-17.934-38.019-24.344-58.261L31.562 599.71C6.366 594.218 0 585.564 0 568.125V441.897c0-17.44 7.869-26.652 31.562-31.585l112.644-20.488c6.41-20.242 14.705-39.678 24.343-58.306l-65.254-94.261c-13.965-21.588-12.328-32.325 0-44.654l89.128-89.286c12.33-12.283 24.479-13.202 44.677.045l94.283 65.278c18.628-9.595 38.086-17.844 58.44-24.344l20.422-112.6C415.625 6.524 424.367.135 441.807.135L568.013 0c17.395.09 26.586 8.048 31.517 31.652l20.49 112.599c20.286 6.434 39.744 14.705 58.327 24.39l94.306-65.279c21.632-13.964 32.325-12.328 44.654 0l89.285 89.197c12.306 12.328 13.225 24.478 0 44.63l-65.344 94.329c9.661 18.584 17.91 38.064 24.411 58.306l112.6 20.488c25.172 5.47 31.538 14.146 31.561 31.585l.09 126.228c-.045 17.44-8.003 26.653-31.607 31.586zM504.888 189.376c-174.289 0-315.58 141.403-315.58 315.625 0 174.356 141.291 315.625 315.58 315.625 174.311 0 315.602-141.27 315.602-315.625 0-174.222-141.29-315.625-315.602-315.625z" class="color545454 svgShape"></path><g fill="#510db6" class="color545454 svgShape"><path d="M503.296 319.368c13.406-.223 24.121-11.23 24.121-24.658-.404-13.09-11.365-23.671-24.48-23.671-13.36 0-24.052 10.894-24.052 24.411 0 13.338 11.006 23.918 24.411 23.918zM297.624 479.311c-13.428 0-24.12 10.984-24.12 24.232 0 13.383 10.917 23.964 24.12 23.964h.292c13.404 0 24.098-10.581 24.098-23.964 0-13.563-11.052-24.479-24.39-24.232zM505.358 685.006c-13.315 0-24.075 10.96-24.075 24.433 0 13.382 10.984 23.94 24.479 23.94 13.023 0 23.941-10.871 23.941-23.94 0-13.473-10.918-24.433-24.345-24.433zM736.383 499.508c-.403-13.405-11.276-24.188-24.703-23.806-13.157 0-24.098 10.984-23.783 24.366v2.152c0 13.382 10.626 24.39 24.052 24.39s24.434-11.008 24.434-24.39c0-.336-.403-.919-.403-1.12 0-.718.403-1.032.403-1.592z" fill="#000000" class="color000000 svgShape"></path></g><path fill="#9566da" d="M655.953 392.065L491.91 494.621c-.203-5.85-3.408-11.41-8.968-14.391L353.24 409.483c-8.36-4.572-18.874-1.591-23.492 6.927-4.573 8.339-1.502 18.852 6.882 23.38l129.86 70.813c.805.471 1.702.763 2.577 1.055-2.825 5.268-2.825 11.835.494 17.216a17.415 17.415 0 0 0 10.826 7.733c4.348.987 8.989.315 13.07-2.22L674.2 421.342c8.093-5.02 10.535-15.714 5.56-23.806-5.112-8.16-15.715-10.581-23.807-5.47z" class="colordab466 svgShape"></path><path fill="#9566da" d="M551.268 502.13c0 25.467-20.668 46.268-46.224 46.268-25.6 0-46.402-20.801-46.402-46.267 0-25.532 20.803-46.313 46.403-46.313 25.555 0 46.223 20.78 46.223 46.313z" class="colordab466 svgShape"></path></g></svg>